<svg width="80" height="80" viewBox="0 0 80 80" fill="none" xmlns="http://www.w3.org/2000/svg">
<rect width="80" height="80" rx="40" fill="#C3741C"/>
<path d="M58.3644 21.2975C58.2501 21.2501 58.1244 21.2378 58.0032 21.2619C57.8819 21.286 57.7705 21.3456 57.6831 21.4331L51.25 27.8662V23.125C51.25 22.9592 51.1842 22.8002 51.0669 22.683C50.9497 22.5658 50.7908 22.5 50.625 22.5H25C22.9319 22.5 21.25 24.1818 21.25 26.25V55C21.25 57.0681 22.9319 58.75 25 58.75H50.625C50.7908 58.75 50.9497 58.6841 51.0669 58.5669C51.1842 58.4497 51.25 58.2907 51.25 58.125V40.8837L54.1738 37.96C57.125 35.0087 58.75 31.085 58.75 26.9118V21.875C58.75 21.7513 58.7134 21.6305 58.6448 21.5277C58.5761 21.4249 58.4786 21.3448 58.3644 21.2975ZM50 57.5H25C23.6212 57.5 22.5 56.3787 22.5 55C22.5 53.6212 23.6212 52.5 25 52.5H50V57.5ZM50 51.25H25C24.0763 51.2503 23.1855 51.5932 22.5 52.2125V26.25C22.5 24.8712 23.6212 23.75 25 23.75H50V29.1162L41.4331 37.6831C41.375 37.741 41.3289 37.8099 41.2975 37.8857C41.2661 37.9616 41.2499 38.0429 41.25 38.125V43.4912L37.6831 47.0581L38.5669 47.9418L42.1338 44.375H47.5C47.6663 44.375 47.825 44.3093 47.9419 44.1918L50 42.1337V51.25ZM57.5 26.9118C57.5051 28.8003 57.1357 30.671 56.413 32.4157C55.6904 34.1604 54.6289 35.7444 53.29 37.0762L47.2412 43.125H43.3838L53.5669 32.9418L52.6831 32.0581L42.5 42.2412V38.3837L57.5 23.3837V26.9118Z" fill="white"/>
<path d="M36.25 38.125C39.6962 38.125 42.5 35.3212 42.5 31.875C42.5 28.4288 39.6962 25.625 36.25 25.625C32.8038 25.625 30 28.4288 30 31.875C30 35.3212 32.8038 38.125 36.25 38.125ZM33.1756 35.81C33.3919 34.2856 34.6819 33.125 36.25 33.125C37.8181 33.125 39.1081 34.2856 39.3244 35.81C38.4481 36.4998 37.3652 36.8748 36.25 36.8748C35.1348 36.8748 34.0519 36.4998 33.1756 35.81ZM35 30.625C35 29.9356 35.5606 29.375 36.25 29.375C36.9394 29.375 37.5 29.9356 37.5 30.625C37.5 31.3144 36.9394 31.875 36.25 31.875C35.5606 31.875 35 31.3144 35 30.625ZM36.25 26.875C39.0069 26.875 41.25 29.1181 41.25 31.875C41.2505 32.8972 40.9355 33.8947 40.3481 34.7312C39.9493 33.6537 39.1421 32.7766 38.1012 32.29C38.5168 31.8348 38.748 31.2413 38.75 30.625C38.75 29.2462 37.6287 28.125 36.25 28.125C34.8713 28.125 33.75 29.2462 33.75 30.625C33.75 31.2669 34 31.8469 34.3988 32.29C33.3579 32.7766 32.5507 33.6537 32.1519 34.7312C31.5645 33.8947 31.2495 32.8972 31.25 31.875C31.25 29.1181 33.4931 26.875 36.25 26.875ZM30.625 46.875H36.875V48.125H30.625V46.875ZM30.625 43.75H38.75V45H30.625V43.75ZM30.625 40.625H40V41.875H30.625V40.625Z" fill="white"/>
</svg>
