<svg width="81" height="80" viewBox="0 0 81 80" fill="none" xmlns="http://www.w3.org/2000/svg">
<rect x="0.5" width="80" height="80" rx="40" fill="#C3741C"/>
<path d="M32.1363 49.7576H21.712C21.3484 49.7576 21.106 49.5152 21.106 49.1515V26.7273C21.106 26.3636 21.3484 26.1212 21.712 26.1212H25.6514C26.015 26.1212 26.2575 26.3636 26.2575 26.7273C26.2575 27.0909 26.015 27.3333 25.6514 27.3333H22.3181V48.5455H32.1363C32.4999 48.5455 32.7423 48.7879 32.7423 49.1515C32.7423 49.5152 32.4999 49.7576 32.1363 49.7576ZM59.2878 49.7576H47.4696C47.106 49.7576 46.8635 49.5152 46.8635 49.1515C46.8635 48.7879 47.106 48.5455 47.4696 48.5455H58.6817V27.3333H55.3484C54.9847 27.3333 54.7423 27.0909 54.7423 26.7273C54.7423 26.3636 54.9847 26.1212 55.3484 26.1212H59.2878C59.6514 26.1212 59.8938 26.3636 59.8938 26.7273V49.1515C59.8938 49.5152 59.6514 49.7576 59.2878 49.7576Z" fill="white"/>
<path d="M55.3486 46.303H55.2274C53.1062 45.9394 50.985 45.7576 48.6213 45.697C48.2577 45.697 48.0153 45.3939 48.0153 45.0909C48.0153 44.7273 48.3183 44.4849 48.6213 44.4849C50.7425 44.5455 52.7425 44.7273 54.6819 44.9697V23.6364C50.0153 22.4242 45.4092 22.4242 41.1062 23.6364V30.7273C41.1062 31.0909 40.8637 31.3333 40.5001 31.3333C40.1365 31.3333 39.894 31.0909 39.894 30.7273V23.1515C39.894 22.9091 40.0759 22.6667 40.3183 22.5455C45.1062 21.1515 50.1971 21.1515 55.4698 22.5455C55.7122 22.6061 55.894 22.8485 55.894 23.1515V45.697C55.894 45.8788 55.8334 46.0606 55.6516 46.1818C55.6516 46.2424 55.4698 46.303 55.3486 46.303Z" fill="white"/>
<path d="M25.6515 46.303C25.5303 46.303 25.3484 46.2424 25.2878 46.1818C25.1666 46.0606 25.0454 45.8788 25.0454 45.697V23.1515C25.0454 22.9091 25.2272 22.6667 25.4697 22.5455C30.2575 21.1515 35.3484 21.1515 40.6212 22.5455C40.8636 22.6061 41.0454 22.8485 41.0454 23.1515V30.7273C41.0454 31.0909 40.803 31.3333 40.4394 31.3333C40.0757 31.3333 39.8333 31.0909 39.8333 30.7273V23.6364C35.1666 22.4242 30.5606 22.4242 26.2575 23.6364V45.0303C28.1363 44.7273 30.0757 44.6061 32.1363 44.5455C32.5 44.5455 32.7424 44.7879 32.7424 45.1515C32.7424 45.5152 32.5 45.7576 32.1363 45.7576C29.8333 45.8182 27.7727 46 25.7121 46.3636C25.7121 46.303 25.7121 46.303 25.6515 46.303ZM46.8636 58.4849H31.409C31.0454 58.4849 30.803 58.2424 30.803 57.8788V52.3636C30.803 52 31.0454 51.7576 31.409 51.7576H46.8636C47.2272 51.7576 47.4697 52 47.4697 52.3636V57.8788C47.4697 58.2424 47.2272 58.4849 46.8636 58.4849ZM32.0151 57.2727H46.2575V52.9697H32.0151V57.2727Z" fill="white"/>
<path d="M35.4088 42.8485C35.0452 42.8485 34.8027 42.6061 34.8027 42.2424V34C34.8027 32.7879 35.833 31.7576 37.0452 31.7576C38.2573 31.7576 39.2876 32.7879 39.2876 34C39.2876 34.3636 39.0452 34.6061 38.6815 34.6061C38.3179 34.6061 38.0755 34.3636 38.0755 34C38.0755 33.3939 37.6512 32.9697 37.0452 32.9697C36.4391 32.9697 36.0149 33.3939 36.0149 34V42.2424C36.0149 42.6061 35.7724 42.8485 35.4088 42.8485Z" fill="white"/>
<path d="M42.015 42.8485C41.6514 42.8485 41.409 42.6061 41.409 42.2424V32.3636C41.409 31.7576 40.9847 31.3333 40.3787 31.3333C39.7726 31.3333 39.3484 31.7576 39.3484 32.3636V42.2424C39.3484 42.6061 39.1059 42.8485 38.7423 42.8485C38.3787 42.8485 38.1362 42.6061 38.1362 42.2424V32.3636C38.1362 31.1515 39.1665 30.1212 40.3787 30.1212C41.5908 30.1212 42.6211 31.1515 42.6211 32.3636V42.2424C42.6211 42.6061 42.3787 42.8485 42.015 42.8485Z" fill="white"/>
<path d="M45.2879 40C44.9242 40 44.6818 39.7576 44.6818 39.3939V34C44.6818 33.3939 44.2575 32.9697 43.6515 32.9697C43.0454 32.9697 42.6212 33.3939 42.6212 34C42.6212 34.3636 42.3788 34.6061 42.0151 34.6061C41.6515 34.6061 41.4091 34.3636 41.4091 34C41.4091 32.7879 42.4394 31.7576 43.6515 31.7576C44.8636 31.7576 45.8939 32.7879 45.8939 34V39.3939C45.8939 39.7576 45.6515 40 45.2879 40ZM33.3485 52.9697C33.1666 52.9697 32.9848 52.9091 32.8636 52.7273C32.0151 51.5151 31.5303 50.0606 31.5303 48.5454V35.4545C31.5303 34.2424 32.5606 33.2121 33.7727 33.2121C34.9848 33.2121 36.0151 34.2424 36.0151 35.4545C36.0151 35.8182 35.7727 36.0606 35.4091 36.0606C35.0454 36.0606 34.803 35.8182 34.803 35.4545C34.803 34.8485 34.3788 34.4242 33.7727 34.4242C33.1666 34.4242 32.7424 34.8485 32.7424 35.4545V48.5454C32.7424 49.8182 33.106 51.0303 33.8333 52C34.0151 52.2424 33.9545 52.6667 33.7121 52.8485C33.5909 52.9091 33.4697 52.9697 33.3485 52.9697Z" fill="white"/>
<path d="M45.106 52.9697C44.9848 52.9697 44.8636 52.9091 44.7424 52.8484C44.5 52.6666 44.3788 52.303 44.6212 52C44.803 51.7575 45.0454 51.4545 45.2879 51.0909C46.197 49.8787 47.5909 48 48.0151 46.9091V40.6666C48.0151 39.3939 47.106 38.303 45.8939 38V44.1818C45.8939 44.5454 45.6515 44.7878 45.2879 44.7878C44.9242 44.7878 44.6818 44.5454 44.6818 44.1818V37.3333C44.6818 36.9697 44.9242 36.7272 45.2879 36.7272C47.4697 36.7272 49.2273 38.4848 49.2273 40.6666V47.0303C49.2273 47.0909 49.2273 47.1515 49.1667 47.2727C48.6818 48.5454 47.2879 50.4242 46.2576 51.8787C46.0151 52.2424 45.7727 52.5454 45.5909 52.7878C45.4697 52.909 45.2879 52.9697 45.106 52.9697ZM37.3485 25.8787H28.6212C28.2576 25.8787 28.0151 25.6363 28.0151 25.2727C28.0151 24.9091 28.2576 24.6666 28.6212 24.6666H37.3485C37.7121 24.6666 37.9545 24.9091 37.9545 25.2727C37.9545 25.6363 37.7121 25.8787 37.3485 25.8787ZM37.3485 28.606H28.6212C28.2576 28.606 28.0151 28.3636 28.0151 28C28.0151 27.6363 28.2576 27.3939 28.6212 27.3939H37.3485C37.7121 27.3939 37.9545 27.6363 37.9545 28C37.9545 28.3636 37.7121 28.606 37.3485 28.606ZM32.4394 31.3333H28.6212C28.2576 31.3333 28.0151 31.0909 28.0151 30.7272C28.0151 30.3636 28.2576 30.1212 28.6212 30.1212H32.4394C32.803 30.1212 33.0454 30.3636 33.0454 30.7272C33.0454 31.0909 32.803 31.3333 32.4394 31.3333ZM52.3182 25.8787H43.5303C43.1667 25.8787 42.9242 25.6363 42.9242 25.2727C42.9242 24.9091 43.1667 24.6666 43.5303 24.6666H52.3182C52.6818 24.6666 52.9242 24.9091 52.9242 25.2727C52.9242 25.6363 52.6818 25.8787 52.3182 25.8787ZM52.3182 28.606H43.5303C43.1667 28.606 42.9242 28.3636 42.9242 28C42.9242 27.6363 43.1667 27.3939 43.5303 27.3939H52.3182C52.6818 27.3939 52.9242 27.6363 52.9242 28C52.9242 28.3636 52.6818 28.606 52.3182 28.606ZM52.3182 31.3333H48.5C48.1364 31.3333 47.8939 31.0909 47.8939 30.7272C47.8939 30.3636 48.1364 30.1212 48.5 30.1212H52.3182C52.6818 30.1212 52.9242 30.3636 52.9242 30.7272C52.9242 31.0909 52.6818 31.3333 52.3182 31.3333Z" fill="white"/>
</svg>
